<svg xmlns="http://www.w3.org/2000/svg" width="142" height="46" viewBox="0 0 142 46">
    <path fill="#231815" fill-rule="evenodd" d="M141.778 25.632v3.683h-10.499v4.27h9.635v3.402h-9.635v4.884H142v3.682h-15.094v-19.92h14.872zm-33.029 3.683v-3.683h16.29v3.683h-5.958v16.238h-4.373V29.315h-5.959zm-14.176-3.683l8.3 13.365h.055V25.632h4.094v19.92h-4.373l-8.27-13.335h-.057v13.336H90.23v-19.92h4.344zm-6.543 0v3.683h-10.5v4.27h9.636v3.402h-9.637v4.884h10.723v3.682H73.158v-19.92H88.03zm-21.222 5.315c-.26-.418-.585-.785-.975-1.102-.39-.316-.83-.562-1.323-.739-.491-.177-1.007-.266-1.545-.266-.984 0-1.82.192-2.508.573-.686.381-1.242.892-1.67 1.534-.427.642-.738 1.372-.933 2.19-.195.82-.293 1.665-.293 2.54 0 .836.098 1.65.293 2.44.195.792.506 1.503.934 2.135.427.633.983 1.14 1.67 1.52.687.383 1.523.573 2.507.573 1.337 0 2.382-.41 3.132-1.228.753-.818 1.212-1.897 1.38-3.236h4.232c-.111 1.246-.4 2.37-.863 3.375-.465 1.005-1.076 1.86-1.838 2.567-.76.708-1.653 1.247-2.674 1.619-1.02.372-2.144.558-3.369.558-1.522 0-2.892-.266-4.108-.795-1.216-.53-2.242-1.26-3.077-2.19-.836-.93-1.477-2.023-1.922-3.28-.446-1.255-.668-2.608-.668-4.058 0-1.488.222-2.87.668-4.144.445-1.274 1.086-2.385 1.922-3.334.835-.949 1.86-1.693 3.077-2.232 1.216-.54 2.586-.81 4.108-.81 1.095 0 2.13.159 3.104.475.976.317 1.848.777 2.618 1.381.772.605 1.407 1.353 1.908 2.246.502.893.817 1.917.948 3.07h-4.234c-.074-.503-.242-.963-.5-1.382zm-26.512 9.696c.24.465.561.842.96 1.13.4.288.869.502 1.407.641.538.14 1.095.21 1.67.21.39 0 .808-.033 1.255-.098.445-.065.863-.19 1.253-.376.388-.187.714-.442.974-.768s.39-.74.39-1.241c0-.54-.172-.978-.515-1.312-.344-.335-.794-.613-1.351-.837-.558-.223-1.188-.419-1.894-.586-.706-.167-1.42-.353-2.145-.558-.741-.186-1.466-.413-2.17-.683-.707-.27-1.338-.619-1.895-1.047-.557-.427-1.008-.962-1.351-1.604-.344-.642-.515-1.418-.515-2.33 0-1.022.217-1.911.654-2.664.437-.753 1.007-1.381 1.713-1.884.706-.502 1.504-.874 2.395-1.116.89-.24 1.783-.362 2.673-.362 1.04 0 2.038.116 2.995.349.956.232 1.805.609 2.548 1.13.742.52 1.331 1.185 1.767 1.994.437.81.656 1.79.656 2.944h-4.233c-.038-.595-.163-1.088-.376-1.479-.214-.39-.497-.697-.85-.92-.353-.224-.757-.382-1.212-.474-.454-.094-.95-.14-1.489-.14-.354 0-.706.037-1.058.111-.353.075-.673.205-.961.39-.289.187-.525.42-.71.698-.186.28-.279.633-.279 1.06 0 .391.074.708.223.95.148.241.441.464.878.669.435.205 1.038.409 1.81.614.77.205 1.777.464 3.02.78.372.075.887.21 1.547.405.658.196 1.313.508 1.963.935.65.429 1.212 1 1.685 1.716.474.716.71 1.632.71 2.748 0 .912-.177 1.758-.53 2.54-.352.78-.877 1.455-1.572 2.022-.697.567-1.56 1.01-2.59 1.325-1.032.317-2.224.475-3.58.475-1.095 0-2.158-.135-3.188-.405-1.03-.269-1.94-.693-2.73-1.27-.788-.575-1.416-1.31-1.88-2.203-.463-.893-.686-1.954-.668-3.182h4.233c0 .67.122 1.238.363 1.703zm-5.542-15.01v3.682H24.255v4.27h9.636v3.402h-9.636v4.884h10.722v3.682H19.882v-19.92h14.872zM8.771 41.87c.63 0 1.243-.102 1.838-.308.594-.204 1.123-.543 1.588-1.018.463-.474.834-1.092 1.113-1.855.28-.763.417-1.693.417-2.79 0-1.005-.096-1.911-.292-2.72-.194-.81-.516-1.503-.96-2.08-.445-.576-1.036-1.018-1.77-1.324-.732-.308-1.638-.461-2.714-.461H4.87v12.556h3.9zm.306-16.239c1.28 0 2.473.205 3.579.614 1.104.41 2.06 1.023 2.868 1.841.807.819 1.439 1.842 1.894 3.07.455 1.227.683 2.669.683 4.324 0 1.451-.187 2.79-.558 4.018-.371 1.227-.933 2.288-1.684 3.18-.753.893-1.69 1.595-2.813 2.107-1.124.512-2.446.767-3.969.767H.5v-19.92h8.578zm54.64-8.64c.427 0 .835-.042 1.225-.126.39-.083.733-.223 1.03-.419.298-.195.534-.46.71-.794.176-.336.265-.763.265-1.284 0-1.022-.288-1.753-.863-2.19-.576-.437-1.338-.656-2.284-.656h-4.762v5.469h4.678zm-.251-8.454c.78 0 1.42-.186 1.921-.558.502-.372.752-.977.752-1.814 0-.464-.083-.846-.25-1.144-.168-.298-.39-.53-.669-.698-.278-.167-.599-.283-.96-.348-.363-.065-.739-.098-1.128-.098h-4.094v4.66h4.428zm.558-8.064c.945 0 1.81.084 2.59.251.779.168 1.447.442 2.004.824.557.381.988.888 1.294 1.52.308.633.461 1.414.461 2.344 0 1.004-.228 1.842-.683 2.51-.454.67-1.128 1.22-2.019 1.647 1.226.354 2.14.973 2.743 1.855.603.884.906 1.95.906 3.195 0 1.005-.197 1.874-.585 2.61-.39.734-.916 1.333-1.574 1.799-.66.465-1.41.81-2.256 1.032-.845.223-1.712.335-2.603.335h-9.637V.474h9.359zm-14.122 18.4c-1.503 1.312-3.582 1.968-6.237 1.968-2.692 0-4.777-.65-6.252-1.953-1.476-1.302-2.214-3.31-2.214-6.026V.474h4.373v12.389c0 .54.045 1.07.139 1.59.092.52.287.98.584 1.381.297.4.71.725 1.24.976.53.252 1.238.377 2.13.377 1.56 0 2.637-.349 3.23-1.046.595-.698.893-1.79.893-3.278V.474h4.37v12.389c0 2.697-.751 4.701-2.256 6.012zM24.34.475v16.238h9.69v3.684H19.969V.474h4.372zM13.618 5.79c-.26-.419-.586-.786-.975-1.102-.39-.317-.83-.563-1.323-.74-.492-.176-1.008-.265-1.546-.265-.983 0-1.82.191-2.506.572-.687.381-1.245.893-1.671 1.535-.427.641-.74 1.372-.933 2.19-.195.818-.292 1.665-.292 2.539 0 .837.097 1.65.292 2.441.194.791.506 1.503.933 2.134.426.633.984 1.14 1.671 1.521.687.382 1.523.572 2.506.572 1.337 0 2.381-.409 3.133-1.228.752-.818 1.211-1.897 1.379-3.236h4.233c-.112 1.246-.399 2.371-.864 3.376-.464 1.004-1.077 1.86-1.837 2.567-.762.707-1.654 1.246-2.675 1.618-1.02.372-2.143.558-3.37.558-1.521 0-2.89-.265-4.107-.795-1.215-.53-2.241-1.26-3.078-2.19-.834-.93-1.475-2.023-1.92-3.279C.223 13.323 0 11.97 0 10.518 0 9.032.223 7.65.668 6.377c.445-1.274 1.086-2.386 1.92-3.335.837-.948 1.863-1.692 3.078-2.232C6.883.269 8.252 0 9.774 0c1.096 0 2.131.158 3.106.474.975.317 1.847.778 2.618 1.382.77.604 1.405 1.353 1.908 2.245.5.893.816 1.917.945 3.07h-4.233c-.074-.503-.24-.963-.5-1.381z"/>
</svg>
