<svg xmlns="http://www.w3.org/2000/svg" width="48" height="54" viewBox="0 0 48 54">
    <path fill="#231815" fill-rule="evenodd" d="M4.217 5.7c-.343.491-.727.668-1.62.668h-.971l.007-4.822h.916c.635.006 1.063.078 1.495.543.376.408.634 1.172.634 1.869-.006.602-.126 1.26-.46 1.742zM5.008.93C4.431.44 3.738.212 2.425.212H0v7.496h2.36c1.324-.002 2.051-.153 2.61-.575.962-.726 1.254-1.745 1.254-3.022 0-1.513-.362-2.453-1.216-3.18zm31.652.603h2.124v6.174h1.552V1.533h2.128V.211h-5.809l.005 1.322zM15.976 3.354l-1.278-.41c-.67-.215-.831-.304-.944-.408-.141-.131-.206-.312-.206-.507 0-.394.326-.825 1.341-.811.94.011 1.461.48 1.517 1.26h1.467C17.788 1.201 17.02.003 14.89 0c-2.205-.004-2.839 1.34-2.85 2.137-.005.494.143.914.51 1.32.31.342.846.589 1.66.849l1.064.34c.551.179.79.28.943.43.161.16.238.345.238.588 0 .408-.272.93-1.508.918-.827-.007-1.37-.341-1.581-1.119H11.8c.103 1.724 1.693 2.447 3.27 2.454 1.89.01 3.042-1.04 3.042-2.44 0-.436-.187-.906-.465-1.24-.318-.383-.637-.552-1.672-.883zM48 1.55V.21h-5.242v7.496H48V6.37h-3.606V4.486h3.26V3.167h-3.26V1.549H48zM6.493 7.707h5.242V6.37h-3.61V4.486h3.26V3.167H8.13V1.549h3.606V.21H6.493v7.496zm18.469 0h5.248V6.37h-3.612V4.486h3.265V3.167H26.6V1.549h3.61V.21h-5.248v7.496zm9.805-3.095L32.032.211h-1.505v7.496h1.561V3.265l2.734 4.442h1.531V.211h-1.586v4.401zM21.57 6.71c-1.171.026-1.627-1.235-1.632-2.886.038-1.42.415-2.664 1.574-2.664.608 0 1.208.447 1.37 1.305h1.779c-.135-.913-1.222-2.45-3.108-2.45-1.055 0-1.898.437-2.475 1.118-.65.766-.843 1.614-.843 2.854 0 1.07.258 2.163.962 2.882.698.712 1.503 1.034 2.458 1.034 1.472 0 2.8-.943 3.044-2.477h-1.802c-.215.918-.76 1.271-1.327 1.284zm12.325 7.12h6.062v-3.042H8.046v3.042h6.061L3.214 24.721 0 21.704v14.311h14.19L11.26 32.9l6.184-6.18v12.54H9.69L24 54l14.311-14.741H30.56v-12.54l6.18 6.18-2.928 3.116H48v-14.31l-3.213 3.016L33.894 13.83z"/>
</svg>
