<svg xmlns="http://www.w3.org/2000/svg" width="32" height="32" viewBox="0 0 32 32">
    <g fill="none" fill-rule="evenodd">
        <path fill="#BFBFBF" fill-rule="nonzero" d="M16 4c-4.241 0-7.7 3.43-7.7 7.636 0 2.63 1.354 4.965 3.403 6.341C7.78 19.647 5 23.51 5 28h2.2c0-3.153 1.68-5.898 4.194-7.432.739 1.798 2.54 3.068 4.606 3.068 2.067 0 3.867-1.27 4.606-3.068C23.12 22.102 24.8 24.847 24.8 28H27c0-4.491-2.78-8.352-6.703-10.023 2.05-1.376 3.403-3.711 3.403-6.34C23.7 7.43 20.241 4 16 4zm0 2.182c3.05 0 5.5 2.429 5.5 5.454 0 3.026-2.45 5.455-5.5 5.455s-5.5-2.43-5.5-5.455 2.45-5.454 5.5-5.454zm0 13.09c.902 0 1.762.129 2.578.376-.382 1.052-1.38 1.807-2.578 1.807-1.199 0-2.196-.755-2.578-1.807.816-.247 1.676-.375 2.578-.375z"/>
    </g>
</svg>
