<svg xmlns="http://www.w3.org/2000/svg" width="32" height="32" viewBox="0 0 32 32">
    <g fill="none" fill-rule="evenodd" transform="translate(4 4)">
        <circle cx="12" cy="12" r="10.875" stroke="#BFBFBF" stroke-width="2.25"/>
        <path fill="#BFBFBF" fill-rule="nonzero" d="M12.295 6C9.815 6 8.41 7.389 8.37 9.4v.1h2.189v-.1c.048-.889.662-1.462 1.59-1.462.92 0 1.535.533 1.535 1.284 0 .75-.315 1.138-1.357 1.76-1.114.654-1.559 1.381-1.454 2.673l.013.345h2.143v-.328c0-.775.3-1.172 1.373-1.793 1.139-.67 1.728-1.518 1.728-2.73C16.13 7.284 14.604 6 12.295 6zm-.291 9.5c-.822 0-1.334.477-1.334 1.254 0 .77.513 1.246 1.334 1.246.82 0 1.327-.476 1.327-1.246 0-.777-.506-1.254-1.327-1.254z"/>
    </g>
</svg>
