<svg xmlns="http://www.w3.org/2000/svg" width="32" height="32" viewBox="0 0 32 32">
    <g fill="none">
        <path fill="#000" d="M4 0h24c2.21 0 4 1.79 4 4v24c0 2.21-1.79 4-4 4H4c-2.21 0-4-1.79-4-4V4c0-2.21 1.79-4 4-4"/>
        <path fill="#FFF" d="M12.288 24.128c6.406.062 11.65-5.082 11.712-11.487V11.92c.802-.581 1.495-1.299 2.048-2.12-.75.329-1.546.545-2.36.64.858-.51 1.5-1.315 1.808-2.264-.808.474-1.69.81-2.608.992-1.275-1.343-3.29-1.669-4.923-.794-1.633.874-2.48 2.731-2.069 4.537-3.316-.151-6.41-1.711-8.504-4.287-1.083 1.877-.527 4.272 1.272 5.48-.652-.021-1.29-.194-1.864-.504v.047c.01 1.947 1.388 3.618 3.296 4-.352.097-.715.146-1.08.145-.268.002-.536-.022-.8-.072.539 1.67 2.078 2.813 3.832 2.848-1.452 1.144-3.247 1.765-5.096 1.76-.328 0-.656 0-.976-.056 1.877 1.202 4.06 1.84 6.288 1.84"/>
    </g>
</svg>
