<svg xmlns="http://www.w3.org/2000/svg" width="32" height="32" viewBox="0 0 32 32">
    <g fill="none">
        <path fill="#000" d="M6.936 0h18.128c1.84 0 3.604.73 4.904 2.032C31.27 3.332 32 5.096 32 6.936v18.128c0 1.84-.73 3.604-2.032 4.904C28.668 31.27 26.904 32 25.064 32H6.936C3.106 32 0 28.895 0 25.064V6.936C0 3.106 3.105 0 6.936 0"/>
        <path fill="#FFF" d="M27.6 14.592c0-5.217-5.2-9.456-11.656-9.456S4.296 9.376 4.296 14.592c0 4.672 4.144 8.592 9.744 9.328.384.08.896.248 1.024.576.094.345.107.706.04 1.056l-.168.991c-.032.193-.232 1.153 1.008.632 1.24-.519 6.712-3.975 9.16-6.767 1.558-1.54 2.454-3.626 2.496-5.816"/>
        <path fill="#000" d="M13.6 12.072c.125.004.224.107.224.232v5.072c0 .124-.1.224-.224.224h-.8c-.124 0-.224-.1-.224-.224v-5.072c0-.125.099-.228.224-.232h.8m5.6 0h-.8c-.128 0-.232.104-.232.232v3.017l-2.328-3.145h-1.008c-.128 0-.232.104-.232.232v5.072c0 .124.1.224.224.224h.808c.124 0 .224-.1.224-.224V14.4l2.328 3.144c.015.025.037.044.064.056h.952c.06 0 .116-.024.158-.066.042-.042.066-.099.066-.158v-5.072c0-.125-.099-.228-.224-.232m-7.592 4.264H9.392v-4c0-.128-.104-.232-.232-.232h-.8c-.125.004-.224.107-.224.232v5.072c0 .06.022.117.064.16.043.035.097.054.152.056h3.264c.06.002.117-.02.16-.06.044-.04.07-.097.072-.156V16.6c0-.123-.1-.224-.223-.224h-.009m12.104-3.032c.123 0 .224-.1.224-.223v-.8c.003-.06-.019-.118-.06-.161-.04-.044-.096-.07-.156-.071h-3.272c-.06-.001-.118.022-.16.064-.042.042-.065.1-.064.159v5.073c0 .06.022.117.064.159.042.042.1.065.16.064h3.264c.057.002.113-.019.155-.058.042-.039.067-.093.069-.15v-.815c.002-.057-.018-.113-.057-.155-.039-.042-.093-.067-.15-.07h-2.241v-.888h2.224c.057.002.113-.019.155-.058.042-.039.067-.093.069-.15V14.4c.002-.06-.02-.117-.06-.16-.04-.044-.097-.07-.156-.072h-2.232v-.824h2.224z"/>
    </g>
</svg>
