<svg xmlns="http://www.w3.org/2000/svg" width="14" height="14" viewBox="0 0 14 14">
    <path fill="#FEC603" d="M2.81 13.067c-.055 0-.11-.028-.165-.055-.082-.055-.137-.192-.11-.302l1.208-4.502L.12 5.27c-.11-.055-.138-.193-.11-.302.027-.11.137-.193.247-.193l4.667-.247L6.598.165C6.653.082 6.763 0 6.873 0c.11 0 .22.082.247.165l1.674 4.364 4.667.247c.11 0 .22.083.247.193.027.11 0 .22-.082.302l-3.624 2.937 1.208 4.502c.027.11 0 .22-.11.302-.082.055-.22.082-.302 0l-3.925-2.526-3.926 2.526c-.055.055-.082.055-.137.055z"/>
</svg>
