<svg xmlns="http://www.w3.org/2000/svg" width="32" height="32" viewBox="0 0 32 32">
    <path fill="#BFBFBF" d="M3.221 4C2.55 4 2 4.54 2 5.2c0 .66.549 1.2 1.221 1.2h2.71L9.135 19c.271 1.069 1.244 1.8 2.365 1.8h14.004c1.102 0 2.037-.717 2.328-1.762L31 7.6H10.547l.61 2.4h16.676l-2.328 8.4H11.501L8.296 5.8C8.024 4.731 7.051 4 5.93 4H3.221zM23.98 20.8c-2.008 0-3.663 1.627-3.663 3.6S21.97 28 23.979 28s3.663-1.627 3.663-3.6-1.655-3.6-3.663-3.6zm-10.99 0c-2.008 0-3.663 1.627-3.663 3.6S10.981 28 12.99 28c2.009 0 3.664-1.627 3.664-3.6s-1.655-3.6-3.664-3.6zm0 2.4c.687 0 1.222.525 1.222 1.2 0 .675-.535 1.2-1.222 1.2-.686 0-1.22-.525-1.22-1.2 0-.675.534-1.2 1.22-1.2zm10.99 0c.687 0 1.221.525 1.221 1.2 0 .675-.534 1.2-1.221 1.2s-1.221-.525-1.221-1.2c0-.675.534-1.2 1.22-1.2z"/>
</svg>
